{"title":"R.I.P.D. RUS CamRip.mp4","uid":8721892,"size":306546026,"categoryP":"video","categoryS":"movies","magnet":"?xt=urn:btih:35aca0814fb4d8efbc8dc0eadcb2f0f795a0909d&amp;dn=R.I.P.D.+RUS+CamRip.mp4&amp;tr=udp%3A%2F%2Ftracker.openbittorrent.com%3A80&amp;tr=udp%3A%2F%2Fopen.demonii.com%3A1337&amp;tr=udp%3A%2F%2Ftracker.coppersurfer.tk%3A6969&amp;tr=udp%3A%2F%2Fexodus.desync.com%3A6969","seeders":2,"leechers":0,"uploader":"globeplus","files":-1,"time":1374434972,"description":"R.I.P.D. RUS CamRip.mp4\n\nPlot\n\nVeteran Boston cop Nick Walker (Reynolds) is killed by his long-time partner after the two keep gold recovered during a drug bust. Walker is sent to the afterlife and because of his law-enforcement skills is offered a position with R.I.P.D. (the Rest In Peace Department) as an alternative to almost-certain eternal punishment. Assigned as the new partner of long-time RIPD officer Roy Pulsipher (Bridges), a lawman from the Old West, the two are assigned to retrieve renegade souls who have evaded the afterlife. They find that the gold that Walker and his partner stole are components to an ancient artifact that will allow the dead to return to Earth and must fight an organization of &quot;dead-ohs&quot; to prevent the artifact from being assembled.\n\n\nGeneral INFO :\n\nFormat                                   : MPEG-4\nCodec ID                                 : M4V \nFile size                                : 292 MiB\nDuration                                 : 1h 22mn\nOverall bit rate mode                    : Variable\nOverall bit rate                         : 494 Kbps\n\nVideo\n\nID                                       : 1\nFormat                                   : AVC\nFormat/Info                              : Advanced Video Codec\nFormat profile                           : &lt;a class=&quot;__cf_email__&quot; href=&quot;/cdn-cgi/l/email-protection&quot; data-cfemail=&quot;5018393738101c637e60&quot;&gt;[email&amp;#160;protected]&lt;/a&gt;&lt;script cf-hash='f9e31' type=&quot;text/javascript&quot;&gt;\n/* &lt;![CDATA[ */!function(){try{var t=&quot;currentScript&quot;in document?document.currentScript:function(){for(var t=document.getElementsByTagName(&quot;script&quot;),e=t.length;e--;)if(t[e].getAttribute(&quot;cf-hash&quot;))return t[e]}();if(t&amp;&amp;t.previousSibling){var e,r,n,i,c=t.previousSibling,a=c.getAttribute(&quot;data-cfemail&quot;);if(a){for(e=&quot;&quot;,r=parseInt(a.substr(0,2),16),n=2;a.length-n;n+=2)i=parseInt(a.substr(n,2),16)^r,e+=String.fromCharCode(i);e=document.createTextNode(e),c.parentNode.replaceChild(e,c)}}}catch(u){}}();/* ]]&gt; */&lt;/script&gt;\nFormat settings, CABAC                   : Yes\nFormat settings, ReFrames                : 2 frames\nCodec ID                                 : avc1\nCodec ID/Info                            : Advanced Video Coding\nDuration                                 : 1h 22mn\nBit rate mode                            : Variable\nBit rate                                 : 444 Kbps\nMaximum bit rate                         : 1 570 Kbps\nWidth                                    : 896 pixels\nHeight                                   : 378 pixels\nDisplay aspect ratio                     : 2.40:1\nFrame rate mode                          : Constant\nFrame rate                               : 29.970 fps\nColor space                              : YUV\nChroma subsampling                       : 4:2:0\nBit depth                                : 8 bits\nScan type                                : Progressive\nBits/(Pixel*Frame)                       : 0.044\nStream size                              : 263 MiB (90%)\nWriting library                          : x264 core 120 r2151 a3f4407\n\n\nAudio\n\nID                                       : 2\nFormat                                   : AAC\nFormat/Info                              : Advanced Audio Codec\nFormat profile                           : HE-AAC / LC\nCodec ID                                 : 40\nDuration                                 : 1h 22mn\nBit rate mode                            : Variable\nBit rate                                 : 48.0 Kbps\nMaximum bit rate                         : 52.4 Kbps\nChannel(s)                               : 2 channels\nChannel positions                        : Front: L R\nSampling rate                            : 48.0 KHz / 24.0 KHz\nCompression mode                         : Lossy\nStream size                              : 28.4 MiB (10%)\nLanguage                                 : English\n\n\n\n\n* enjoy ...","torrent":{"xt":"urn:btih:35aca0814fb4d8efbc8dc0eadcb2f0f795a0909d","amp;dn":"R.I.P.D.+RUS+CamRip.mp4","amp;tr":["udp%3A%2F%2Ftracker.openbittorrent.com%3A80","udp%3A%2F%2Fopen.demonii.com%3A1337","udp%3A%2F%2Ftracker.coppersurfer.tk%3A6969","udp%3A%2F%2Fexodus.desync.com%3A6969"],"infoHash":"35aca0814fb4d8efbc8dc0eadcb2f0f795a0909d","infoHashBuffer":{"type":"Buffer","data":[53,172,160,129,79,180,216,239,188,141,192,234,220,178,240,247,149,160,144,157]},"announce":[],"urlList":[]}}